<?xml version="1.0" encoding="utf-8"?>
<!-- Generator: Adobe Illustrator 16.0.0, SVG Export Plug-In . SVG Version: 6.00 Build 0)  -->
<!DOCTYPE svg PUBLIC "-//W3C//DTD SVG 1.1//EN" "http://www.w3.org/Graphics/SVG/1.1/DTD/svg11.dtd">
<svg version="1.1" id="Layer_1" xmlns="http://www.w3.org/2000/svg" xmlns:xlink="http://www.w3.org/1999/xlink" x="0px" y="0px"
	 width="432px" height="432px" viewBox="0 0 432 432" enable-background="new 0 0 432 432" xml:space="preserve">
<g>
	<path fill="#FFFFFF" d="M95.719,249.572c4.224-5.563,8.963-11.537,14.217-17.926c5.254-6.387,10.714-12.336,16.38-17.848
		c5.664-5.511,11.305-10.096,16.921-13.753c5.614-3.655,10.895-5.486,15.839-5.486c1.236,0,2.627,0.231,4.172,0.696
		c1.545,0.463,3.014,1.313,4.404,2.549c1.391,1.236,2.55,2.962,3.478,5.177c0.927,2.216,1.391,5.075,1.391,8.577
		c0,7.007-0.98,13.83-2.936,20.476c-1.958,6.645-4.095,13.289-6.414,19.935c-2.318,6.645-4.43,13.419-6.335,20.32
		c-1.908,6.904-2.859,14.116-2.859,21.636c0,4.12,0.618,7.416,1.854,9.89c1.236,2.472,2.832,3.709,4.79,3.709
		c2.473,0,5.1-0.516,7.881-1.546c2.782-1.029,5.563-2.369,8.345-4.019c2.782-1.646,5.51-3.527,8.19-5.64
		c2.678-2.11,5.201-4.301,7.572-6.567c5.664-5.254,11.228-11.229,16.689-17.926l2.627,41.104c-1.854,1.444-4.199,3.246-7.031,5.409
		c-2.835,2.164-5.976,4.457-9.427,6.877c-3.453,2.422-7.186,4.867-11.203,7.341c-4.018,2.472-8.062,4.662-12.131,6.566
		c-4.071,1.907-8.139,3.477-12.208,4.714c-4.071,1.236-7.958,1.854-11.667,1.854c-5.667,0-10.585-1.52-14.758-4.56
		c-4.172-3.037-7.598-6.901-10.277-11.589c-2.68-4.688-4.689-9.813-6.027-15.376c-1.339-5.563-2.008-10.817-2.008-15.763
		c0-3.296,0.437-6.979,1.313-11.049c0.874-4.068,1.956-8.163,3.245-12.285c1.287-4.12,2.728-8.138,4.327-12.054
		c1.596-3.914,3.091-7.417,4.481-10.508c1.391-3.091,2.601-5.614,3.632-7.572c1.028-1.956,1.699-3.091,2.008-3.399l-3.245-0.464
		c-1.753,1.134-4.713,4.018-8.886,8.653s-8.885,10.483-14.14,17.54c-5.254,7.058-10.689,14.989-16.303,23.798
		c-5.617,8.808-10.688,17.9-15.221,27.274c-2.267,4.636-4.121,8.68-5.563,12.131c-1.444,3.452-2.859,6.284-4.25,8.499
		c-1.391,2.217-2.912,3.89-4.559,5.022c-1.649,1.134-3.762,1.7-6.335,1.7c-3.4,0-6.081-0.979-8.036-2.937
		c-1.958-1.957-3.453-4.559-4.481-7.804c-1.03-3.246-1.7-6.928-2.009-11.05c-0.309-4.119-0.463-8.345-0.463-12.672
		c0-6.9,0.078-15.941,0.232-27.12c0.154-11.177,0.642-23.565,1.468-37.164c0.824-13.599,2.009-27.918,3.554-42.96
		c1.545-15.041,3.733-29.901,6.568-44.582c2.832-14.681,6.387-28.689,10.663-42.033c4.273-13.34,9.477-25.084,15.607-35.233
		c6.128-10.146,13.314-18.208,21.558-24.184c8.241-5.974,17.718-8.963,28.434-8.963c5.563,0,10.122,0.826,13.676,2.473
		c3.554,1.649,6.387,3.967,8.499,6.954c2.11,2.99,3.578,6.568,4.404,10.74c0.824,4.172,1.237,8.834,1.237,13.985
		c0,7.626-1.082,16.071-3.246,25.343s-5.022,18.906-8.576,28.897c-3.555,9.994-7.599,20.116-12.131,30.366
		c-4.535,10.252-9.171,20.192-13.908,29.825c-4.739,9.633-9.402,18.725-13.985,27.275c-4.585,8.552-8.629,16.071-12.131,22.562
		L95.719,249.572z M109.473,154.072c6.078-15.763,10.481-29.052,13.212-39.869c2.729-10.817,4.095-18.799,4.095-23.953
		c0-7.828-1.031-11.744-3.09-11.744c-2.681,0-6.646,4.38-11.899,13.135c-5.254,8.757-11.435,21.48-18.544,38.169
		c-1.753,5.667-3.375,11.539-4.867,17.617c-1.495,6.08-2.835,12.13-4.018,18.157c-1.186,6.027-2.267,11.952-3.246,17.771
		c-0.98,5.821-1.83,11.358-2.549,16.612c-1.753,12.261-3.091,24.262-4.018,36.006c2.782-6.49,5.819-13.546,9.118-21.171
		c3.296-7.624,6.541-15.168,9.735-22.639c3.192-7.469,6.206-14.526,9.041-21.171C105.274,164.348,107.619,158.708,109.473,154.072z"
		/>
	<path fill="#FFFFFF" d="M294.757,312.776c-3.709,3.399-8.32,7.03-13.831,10.895c-5.511,3.862-11.459,7.417-17.849,10.662
		c-6.388,3.245-12.903,5.949-19.548,8.113c-6.645,2.163-12.956,3.245-18.93,3.245c-5.358,0-9.867-0.746-13.522-2.241
		c-3.658-1.493-6.621-3.579-8.886-6.258c-2.267-2.679-3.889-5.95-4.868-9.812c-0.98-3.864-1.468-8.114-1.468-12.75
		c0-6.49,0.746-14.035,2.241-22.639c1.492-8.602,3.322-17.513,5.486-26.733c2.164-9.22,4.455-18.415,6.877-27.585
		c2.419-9.168,4.558-17.616,6.413-25.343c0.719-2.678,2.164-4.97,4.328-6.876c2.162-1.906,4.608-3.451,7.339-4.636
		c2.729-1.183,5.563-2.06,8.5-2.627c2.937-0.564,5.588-0.85,7.959-0.85c4.326,0,7.263,0.799,8.808,2.395
		c1.545,1.599,2.318,3.735,2.318,6.413c0,2.267-0.517,5.539-1.546,9.812c-1.029,4.277-2.317,9.119-3.863,14.527
		c-1.545,5.408-3.192,11.229-4.944,17.462c-1.753,6.233-3.4,12.466-4.945,18.698c-1.546,6.233-2.835,12.312-3.863,18.234
		c-1.03,5.925-1.546,11.256-1.546,15.994c0,4.636,0.516,8.32,1.546,11.049c1.028,2.731,3.142,4.095,6.336,4.095
		c3.708,0,7.828-1.286,12.362-3.862c4.533-2.575,9.117-5.692,13.753-9.35c4.636-3.656,9.17-7.442,13.599-11.358
		c4.43-3.913,8.345-7.263,11.745-10.044V312.776z M225.681,153.917c0-2.369,0.515-5.047,1.546-8.036
		c1.028-2.987,2.704-5.794,5.021-8.421c2.318-2.627,5.409-4.842,9.272-6.645c3.863-1.801,8.679-2.705,14.449-2.705
		c3.606,0,7.006,0.413,10.198,1.236c3.193,0.826,5.974,2.086,8.345,3.786c2.37,1.7,4.25,3.94,5.642,6.722
		c1.39,2.782,2.086,6.081,2.086,9.891c0,3.503-0.566,6.903-1.7,10.199c-1.135,3.298-2.937,6.234-5.409,8.808
		c-2.473,2.576-5.588,4.662-9.349,6.258c-3.762,1.599-8.268,2.396-13.521,2.396c-9.065,0-15.763-2.137-20.089-6.414
		C227.844,166.719,225.681,161.026,225.681,153.917z"/>
	<path fill="#FFFFFF" d="M355.179,317.103c-0.207,0.412-0.387,1.392-0.541,2.937c-0.155,1.545-0.516,3.399-1.082,5.562
		c-0.568,2.164-1.366,4.431-2.395,6.8c-1.032,2.37-2.55,4.559-4.56,6.567c-2.009,2.01-4.559,3.685-7.649,5.022
		c-3.09,1.34-6.954,2.009-11.59,2.009c-3.812,0-7.263-0.489-10.354-1.468c-3.09-0.979-5.745-2.497-7.958-4.559
		c-2.216-2.061-3.94-4.688-5.177-7.881c-1.235-3.193-1.854-7.005-1.854-11.437c0-3.708,0.541-7.339,1.623-10.895
		c1.082-3.554,2.753-6.722,5.021-9.502c2.266-2.782,5.202-4.997,8.809-6.646c3.604-1.646,7.881-2.472,12.826-2.472
		c8.035,0,14.217,2.163,18.544,6.489c4.327,4.327,6.49,10.509,6.49,18.545C355.333,316.588,355.28,316.896,355.179,317.103z
		 M328.289,266.571c1.03-10.611,2.575-21.558,4.638-32.839c2.058-11.28,4.429-22.561,7.107-33.842
		c2.677-11.281,5.535-22.431,8.577-33.456c3.037-11.023,6.052-21.581,9.039-31.679c2.986-10.096,5.845-19.572,8.577-28.434
		c2.729-8.86,5.125-16.844,7.186-23.953c1.338-4.945,3.27-8.936,5.795-11.976c2.521-3.037,5.331-5.408,8.422-7.108
		c3.091-1.7,6.36-2.859,9.812-3.477c3.45-0.618,6.771-0.927,9.968-0.927c1.647,0,3.193,0.208,4.636,0.618
		c1.441,0.413,2.677,1.159,3.709,2.24c1.029,1.082,1.827,2.577,2.396,4.481c0.565,1.908,0.85,4.354,0.85,7.34
		c0,2.062-0.13,4.303-0.386,6.722c-0.261,2.422-0.696,5.177-1.314,8.268c-2.577,12.054-5.925,24.133-10.045,36.238
		c-4.122,12.106-9.067,25.111-14.834,39.019c-5.771,13.908-12.338,29.183-19.704,45.819c-7.366,16.639-15.582,35.619-24.646,56.945
		c-0.207,1.134-0.748,2.189-1.623,3.168c-0.878,0.979-1.932,1.803-3.168,2.472c-1.236,0.671-2.577,1.186-4.019,1.545
		c-1.442,0.362-2.834,0.541-4.172,0.541c-1.959,0-3.632-0.41-5.021-1.235c-1.391-0.824-2.087-2.215-2.087-4.173
		C327.98,268.374,328.082,267.602,328.289,266.571z"/>
</g>
</svg>
